{"title":"Paranormal Activity 3 (2011) TS NL subs DutchReleaseTeam","uid":6770543,"size":739961428,"categoryP":"video","categoryS":"movies","magnet":"?xt=urn:btih:4e317f1b66aa305fbc29eb7f78b11b76a5cee13d&amp;dn=Paranormal+Activity+3+%282011%29+TS+NL+subs+DutchReleaseTeam&amp;tr=udp%3A%2F%2Ftracker.openbittorrent.com%3A80&amp;tr=udp%3A%2F%2Fopen.demonii.com%3A1337&amp;tr=udp%3A%2F%2Ftracker.coppersurfer.tk%3A6969&amp;tr=udp%3A%2F%2Fexodus.desync.com%3A6969","seeders":4,"leechers":1,"uploader":"Koedje","files":-1,"time":1319559714,"description":" &lt;a href=&quot;http://img28.imageshack.us/img28/8601/paranormalq.jpg&quot; rel=&quot;nofollow&quot; target=&quot;_NEW&quot;&gt;http://img28.imageshack.us/img28/8601/paranormalq.jpg&lt;/a&gt;\n\n\nVerenigde Staten\nHorror / Mystery\n85 minuten\n\ngeregisseerd door Henry Joost en Ariel Schulman\nmet Chloe Csengery, Jessica Tyler Brown en Katie Featherston\n\nAchttien jaar voor de gebeurtenissen van deel 1 en 2 volgen we Katie en haar zus Kristi tijdens een logeerpartij bij hun grootmoeder. Hun dagelijkse bezigheden worden vastgelegd op film als herinnering voor de ouders en ook Katie en Kristi mogen van de camera gebruik maken. Katie en Kristi geraken in bizarre situaties en er wordt een pact wordt gesloten met de duivel omtrent Hunter...\n\n\nVertaald door Simply ReleaseS Toppers\nJesprulin en Markow87\n\n\n\n\n\nScreenshots:\n &lt;a href=&quot;\nhttp://img828.imageshack.us/img828/9682/screenshot1ob.jpg&quot; rel=&quot;nofollow&quot; target=&quot;_NEW&quot;&gt;\nhttp://img828.imageshack.us/img828/9682/screenshot1ob.jpg&lt;/a&gt;\n &lt;a href=&quot;\nhttp://img811.imageshack.us/img811/3793/screenshot2ud.jpg&quot; rel=&quot;nofollow&quot; target=&quot;_NEW&quot;&gt;\nhttp://img811.imageshack.us/img811/3793/screenshot2ud.jpg&lt;/a&gt;\n &lt;a href=&quot;\nhttp://img593.imageshack.us/img593/2434/screenshot3yah.jpg&quot; rel=&quot;nofollow&quot; target=&quot;_NEW&quot;&gt;\nhttp://img593.imageshack.us/img593/2434/screenshot3yah.jpg&lt;/a&gt;\n &lt;a href=&quot;\nhttp://img827.imageshack.us/img827/6389/screenshot4jem.jpg&quot; rel=&quot;nofollow&quot; target=&quot;_NEW&quot;&gt;\nhttp://img827.imageshack.us/img827/6389/screenshot4jem.jpg&lt;/a&gt;\n\n\n\nINFO;\n\nVideo\nID                                       : 0\nFormat                                   : MPEG-4 Visual\nFormat profile                           : Advanced Simple@L5\nFormat settings, BVOP                    : 1\nFormat settings, QPel                    : No\nFormat settings, GMC                     : No warppoints\nFormat settings, Matrix                  : Custom\nCodec ID                                 : XVID\nCodec ID/Hint                            : XviD\nDuration                                 : 1h 18mn\nBit rate                                 : 1 124 Kbps\nWidth                                    : 720 pixels\nHeight                                   : 384 pixels\nDisplay aspect ratio                     : 1.875\nFrame rate                               : 29.970 fps\nColor space                              : YUV\nChroma subsampling                       : 4:2:0\nBit depth                                : 8 bits\nScan type                                : Progressive\nCompression mode                         : Lossy\nBits/(Pixel*Frame)                       : 0.136\nStream size                              : 632 MiB (90%)\nWriting library                          : XviD 64\n\nAudio\nID                                       : 1\nFormat                                   : MPEG Audio\nFormat version                           : Version 1\nFormat profile                           : Layer 3\nMode                                     : Joint stereo\nMode extension                           : MS Stereo\nCodec ID                                 : 55\nCodec ID/Hint                            : MP3\nDuration                                 : 1h 18mn\nBit rate mode                            : Variable\nBit rate                                 : 106 Kbps\nNominal bit rate                         : 128 Kbps\nChannel(s)                               : 2 channels\nSampling rate                            : 48.0 KHz\nCompression mode                         : Lossy\nStream size                              : 59.3 MiB (8%)\nAlignment                                : Aligned on interleaves\nInterleave, duration                     : 24 ms (0.72 video frame)\nInterleave, preload duration             : 491 ms\nWriting library                          : LAME3.98r\n\n\n\n &lt;a href=&quot;\nhttp://www.imdb.com/title/tt1778304/&quot; rel=&quot;nofollow&quot; target=&quot;_NEW&quot;&gt;\nhttp://www.imdb.com/title/tt1778304/&lt;/a&gt; &lt;a href=&quot;\nhttp://www.moviemeter.nl/film/79044&quot; rel=&quot;nofollow&quot; target=&quot;_NEW&quot;&gt;\nhttp://www.moviemeter.nl/film/79044&lt;/a&gt;\n\n\n\n\nDeze film wordt u aangeboden door het DutchReleaseTeam.\nVoor de reviews van de nieuwste films, muziek, series, games etc\nga dan eens naar http://www.hetmultimediacafe.be\n\nDutchReleaseteam = Hardcoded Dutch Subs","torrent":{"xt":"urn:btih:4e317f1b66aa305fbc29eb7f78b11b76a5cee13d","amp;dn":"Paranormal+Activity+3+%282011%29+TS+NL+subs+DutchReleaseTeam","amp;tr":["udp%3A%2F%2Ftracker.openbittorrent.com%3A80","udp%3A%2F%2Fopen.demonii.com%3A1337","udp%3A%2F%2Ftracker.coppersurfer.tk%3A6969","udp%3A%2F%2Fexodus.desync.com%3A6969"],"infoHash":"4e317f1b66aa305fbc29eb7f78b11b76a5cee13d","infoHashBuffer":{"type":"Buffer","data":[78,49,127,27,102,170,48,95,188,41,235,127,120,177,27,118,165,206,225,61]},"announce":[],"urlList":[]}}